<svg width="414" height="906" viewBox="0 0 414 906" fill="none" xmlns="http://www.w3.org/2000/svg">
<rect x="0.5" y="0.5" width="413" height="900" fill="black"/>
<rect width="414" height="906" fill="url(#paint0_linear)"/>
<circle opacity="0.5" cx="220" cy="209" r="87.5" stroke="black" stroke-width="15"/>
<path d="M177.252 439.754C176.593 440.543 175.661 441.158 174.457 441.597C173.252 442.028 171.917 442.244 170.453 442.244C168.915 442.244 167.564 441.91 166.4 441.243C165.244 440.568 164.349 439.591 163.714 438.313C163.088 437.036 162.766 435.534 162.75 433.809V432.601C162.75 430.826 163.047 429.292 163.641 427.999C164.243 426.696 165.106 425.704 166.229 425.02C167.36 424.328 168.683 423.982 170.196 423.982C172.304 423.982 173.952 424.487 175.14 425.496C176.328 426.497 177.032 427.958 177.252 429.878H173.688C173.525 428.861 173.163 428.117 172.601 427.645C172.048 427.173 171.283 426.937 170.306 426.937C169.061 426.937 168.113 427.404 167.462 428.34C166.811 429.276 166.481 430.668 166.473 432.515V433.65C166.473 435.514 166.827 436.922 167.535 437.874C168.243 438.826 169.281 439.302 170.648 439.302C172.023 439.302 173.004 439.009 173.59 438.423V435.359H170.257V432.662H177.252V439.754ZM186.81 435.494H183.893V442H180.23V424.227H186.834C188.934 424.227 190.554 424.694 191.693 425.63C192.832 426.566 193.402 427.889 193.402 429.598C193.402 430.81 193.137 431.823 192.608 432.637C192.088 433.443 191.294 434.086 190.228 434.566L194.073 441.829V442H190.143L186.81 435.494ZM183.893 432.527H186.847C187.766 432.527 188.478 432.295 188.983 431.832C189.487 431.36 189.74 430.713 189.74 429.891C189.74 429.052 189.5 428.393 189.02 427.913C188.548 427.433 187.819 427.193 186.834 427.193H183.893V432.527ZM210.797 433.516C210.797 435.266 210.488 436.8 209.869 438.118C209.251 439.437 208.364 440.454 207.208 441.17C206.061 441.886 204.742 442.244 203.253 442.244C201.78 442.244 200.466 441.89 199.31 441.182C198.154 440.474 197.259 439.465 196.625 438.155C195.99 436.836 195.668 435.323 195.66 433.614V432.735C195.66 430.985 195.973 429.447 196.6 428.121C197.235 426.786 198.126 425.765 199.273 425.057C200.429 424.34 201.747 423.982 203.229 423.982C204.71 423.982 206.024 424.34 207.171 425.057C208.327 425.765 209.218 426.786 209.845 428.121C210.479 429.447 210.797 430.981 210.797 432.723V433.516ZM207.086 432.71C207.086 430.847 206.752 429.431 206.085 428.462C205.418 427.494 204.465 427.01 203.229 427.01C202 427.01 201.052 427.49 200.384 428.45C199.717 429.402 199.379 430.802 199.371 432.649V433.516C199.371 435.331 199.705 436.739 200.372 437.74C201.039 438.741 202 439.241 203.253 439.241C204.482 439.241 205.426 438.761 206.085 437.801C206.744 436.832 207.078 435.424 207.086 433.577V432.71ZM227.301 436.873L229.693 424.227H233.343L229.4 442H225.714L222.821 430.11L219.928 442H216.241L212.298 424.227H215.948L218.353 436.849L221.283 424.227H224.383L227.301 436.873ZM249.786 442H246.124L238.995 430.306V442H235.333V424.227H238.995L246.136 435.945V424.227H249.786V442ZM119.928 461.234L123.626 453.227H127.63L121.795 464.555V471H118.072V464.555L112.237 453.227H116.253L119.928 461.234ZM143.487 462.516C143.487 464.266 143.178 465.8 142.56 467.118C141.941 468.437 141.054 469.454 139.898 470.17C138.751 470.886 137.433 471.244 135.943 471.244C134.47 471.244 133.156 470.89 132 470.182C130.845 469.474 129.95 468.465 129.315 467.155C128.68 465.836 128.359 464.323 128.351 462.614V461.735C128.351 459.985 128.664 458.447 129.291 457.121C129.925 455.786 130.816 454.765 131.964 454.057C133.119 453.34 134.438 452.982 135.919 452.982C137.4 452.982 138.714 453.34 139.862 454.057C141.017 454.765 141.909 455.786 142.535 457.121C143.17 458.447 143.487 459.981 143.487 461.723V462.516ZM139.776 461.71C139.776 459.847 139.443 458.431 138.775 457.462C138.108 456.494 137.156 456.01 135.919 456.01C134.69 456.01 133.742 456.49 133.075 457.45C132.407 458.402 132.07 459.802 132.062 461.649V462.516C132.062 464.331 132.395 465.739 133.062 466.74C133.73 467.741 134.69 468.241 135.943 468.241C137.172 468.241 138.116 467.761 138.775 466.801C139.435 465.832 139.768 464.424 139.776 462.577V461.71ZM159.601 453.227V464.933C159.601 466.878 158.99 468.416 157.77 469.547C156.557 470.679 154.897 471.244 152.789 471.244C150.714 471.244 149.066 470.695 147.845 469.596C146.625 468.498 146.002 466.988 145.978 465.067V453.227H149.64V464.958C149.64 466.121 149.916 466.972 150.47 467.509C151.031 468.038 151.804 468.302 152.789 468.302C154.848 468.302 155.894 467.22 155.926 465.055V453.227H159.601ZM169.183 464.494H166.266V471H162.604V453.227H169.208C171.307 453.227 172.927 453.694 174.066 454.63C175.205 455.566 175.775 456.889 175.775 458.598C175.775 459.81 175.51 460.823 174.981 461.637C174.461 462.443 173.667 463.086 172.601 463.566L176.446 470.829V471H172.516L169.183 464.494ZM166.266 461.527H169.22C170.139 461.527 170.851 461.295 171.356 460.832C171.861 460.36 172.113 459.713 172.113 458.891C172.113 458.052 171.873 457.393 171.393 456.913C170.921 456.433 170.192 456.193 169.208 456.193H166.266V461.527ZM184.796 471V453.227H191.021C193.178 453.227 194.814 453.642 195.929 454.472C197.044 455.294 197.601 456.502 197.601 458.097C197.601 458.968 197.377 459.737 196.93 460.404C196.482 461.063 195.86 461.548 195.062 461.857C195.973 462.085 196.69 462.545 197.21 463.236C197.739 463.928 198.004 464.774 198.004 465.775C198.004 467.484 197.459 468.778 196.368 469.657C195.278 470.536 193.723 470.984 191.705 471H184.796ZM188.458 463.261V468.058H191.595C192.458 468.058 193.129 467.855 193.609 467.448C194.098 467.033 194.342 466.463 194.342 465.739C194.342 464.111 193.5 463.285 191.815 463.261H188.458ZM188.458 460.673H191.168C193.015 460.64 193.939 459.904 193.939 458.463C193.939 457.658 193.703 457.08 193.231 456.73C192.767 456.372 192.031 456.193 191.021 456.193H188.458V460.673ZM214.215 453.227V464.933C214.215 466.878 213.604 468.416 212.384 469.547C211.171 470.679 209.511 471.244 207.403 471.244C205.328 471.244 203.68 470.695 202.459 469.596C201.239 468.498 200.616 466.988 200.592 465.067V453.227H204.254V464.958C204.254 466.121 204.531 466.972 205.084 467.509C205.646 468.038 206.419 468.302 207.403 468.302C209.462 468.302 210.508 467.22 210.541 465.055V453.227H214.215ZM226.434 466.337C226.434 465.645 226.19 465.116 225.702 464.75C225.213 464.376 224.334 463.985 223.065 463.578C221.795 463.163 220.79 462.756 220.05 462.357C218.032 461.267 217.022 459.798 217.022 457.951C217.022 456.99 217.291 456.136 217.828 455.387C218.373 454.63 219.151 454.04 220.16 453.617C221.177 453.194 222.316 452.982 223.578 452.982C224.847 452.982 225.978 453.214 226.971 453.678C227.964 454.134 228.733 454.781 229.278 455.619C229.832 456.457 230.108 457.41 230.108 458.476H226.446C226.446 457.662 226.19 457.031 225.677 456.583C225.165 456.128 224.444 455.9 223.517 455.9C222.621 455.9 221.926 456.091 221.429 456.474C220.933 456.848 220.685 457.344 220.685 457.963C220.685 458.541 220.973 459.025 221.551 459.416C222.137 459.806 222.996 460.172 224.127 460.514C226.21 461.141 227.728 461.918 228.68 462.846C229.632 463.773 230.108 464.929 230.108 466.312C230.108 467.851 229.527 469.059 228.363 469.938C227.199 470.809 225.632 471.244 223.663 471.244C222.296 471.244 221.051 470.996 219.928 470.5C218.805 469.995 217.946 469.307 217.352 468.437C216.766 467.566 216.473 466.557 216.473 465.409H220.147C220.147 467.37 221.319 468.351 223.663 468.351C224.534 468.351 225.213 468.176 225.702 467.826C226.19 467.468 226.434 466.972 226.434 466.337ZM236.493 471H232.831V453.227H236.493V471ZM254.352 471H250.689L243.561 459.306V471H239.898V453.227H243.561L250.702 464.945V453.227H254.352V471ZM268.243 463.297H261.212V468.058H269.464V471H257.55V453.227H269.439V456.193H261.212V460.429H268.243V463.297ZM280.829 466.337C280.829 465.645 280.584 465.116 280.096 464.75C279.608 464.376 278.729 463.985 277.459 463.578C276.19 463.163 275.185 462.756 274.444 462.357C272.426 461.267 271.417 459.798 271.417 457.951C271.417 456.99 271.686 456.136 272.223 455.387C272.768 454.63 273.545 454.04 274.554 453.617C275.571 453.194 276.711 452.982 277.972 452.982C279.242 452.982 280.373 453.214 281.366 453.678C282.359 454.134 283.128 454.781 283.673 455.619C284.226 456.457 284.503 457.41 284.503 458.476H280.841C280.841 457.662 280.584 457.031 280.072 456.583C279.559 456.128 278.839 455.9 277.911 455.9C277.016 455.9 276.32 456.091 275.824 456.474C275.327 456.848 275.079 457.344 275.079 457.963C275.079 458.541 275.368 459.025 275.946 459.416C276.532 459.806 277.39 460.172 278.521 460.514C280.605 461.141 282.123 461.918 283.075 462.846C284.027 463.773 284.503 464.929 284.503 466.312C284.503 467.851 283.921 469.059 282.757 469.938C281.594 470.809 280.027 471.244 278.058 471.244C276.69 471.244 275.445 470.996 274.322 470.5C273.199 469.995 272.341 469.307 271.747 468.437C271.161 467.566 270.868 466.557 270.868 465.409H274.542C274.542 467.37 275.714 468.351 278.058 468.351C278.928 468.351 279.608 468.176 280.096 467.826C280.584 467.468 280.829 466.972 280.829 466.337ZM296.209 466.337C296.209 465.645 295.965 465.116 295.477 464.75C294.989 464.376 294.11 463.985 292.84 463.578C291.571 463.163 290.566 462.756 289.825 462.357C287.807 461.267 286.798 459.798 286.798 457.951C286.798 456.99 287.066 456.136 287.604 455.387C288.149 454.63 288.926 454.04 289.935 453.617C290.952 453.194 292.092 452.982 293.353 452.982C294.623 452.982 295.754 453.214 296.747 453.678C297.739 454.134 298.508 454.781 299.054 455.619C299.607 456.457 299.884 457.41 299.884 458.476H296.222C296.222 457.662 295.965 457.031 295.453 456.583C294.94 456.128 294.22 455.9 293.292 455.9C292.397 455.9 291.701 456.091 291.205 456.474C290.708 456.848 290.46 457.344 290.46 457.963C290.46 458.541 290.749 459.025 291.327 459.416C291.913 459.806 292.771 460.172 293.902 460.514C295.986 461.141 297.503 461.918 298.456 462.846C299.408 463.773 299.884 464.929 299.884 466.312C299.884 467.851 299.302 469.059 298.138 469.938C296.974 470.809 295.408 471.244 293.438 471.244C292.071 471.244 290.826 470.996 289.703 470.5C288.58 469.995 287.722 469.307 287.127 468.437C286.542 467.566 286.249 466.557 286.249 465.409H289.923C289.923 467.37 291.095 468.351 293.438 468.351C294.309 468.351 294.989 468.176 295.477 467.826C295.965 467.468 296.209 466.972 296.209 466.337Z" fill="black"/>
<path d="M66.8291 531.363L68.4697 523.336H70.3081L67.8472 534H66.0747L64.0459 526.214L61.9731 534H60.1934L57.7324 523.336H59.5708L61.2261 531.349L63.2622 523.336H64.8149L66.8291 531.363ZM74.7466 534.146C73.6187 534.146 72.7031 533.792 72 533.084C71.3018 532.372 70.9526 531.424 70.9526 530.243V530.023C70.9526 529.232 71.104 528.526 71.4067 527.906C71.7144 527.281 72.144 526.795 72.6958 526.449C73.2476 526.102 73.8628 525.929 74.5415 525.929C75.6206 525.929 76.4531 526.273 77.0391 526.961C77.6299 527.65 77.9253 528.624 77.9253 529.884V530.602H72.7471C72.8008 531.256 73.0181 531.773 73.3989 532.154C73.7847 532.535 74.2681 532.726 74.8491 532.726C75.6646 532.726 76.3286 532.396 76.8413 531.737L77.8008 532.652C77.4834 533.126 77.0586 533.495 76.5264 533.758C75.999 534.017 75.4058 534.146 74.7466 534.146ZM74.5342 527.357C74.0459 527.357 73.6504 527.528 73.3477 527.87C73.0498 528.211 72.8594 528.688 72.7764 529.298H76.1675V529.166C76.1284 528.57 75.9697 528.121 75.6914 527.818C75.4131 527.511 75.0273 527.357 74.5342 527.357ZM90.0103 531.546L91.27 526.075H93.0059L90.8452 534H89.3804L87.6812 528.558L86.0112 534H84.5464L82.3784 526.075H84.1143L85.396 531.488L87.022 526.075H88.3623L90.0103 531.546ZM96.0894 534H94.3096V526.075H96.0894V534ZM94.1997 524.017C94.1997 523.744 94.2852 523.517 94.4561 523.336C94.6318 523.155 94.8809 523.065 95.2031 523.065C95.5254 523.065 95.7744 523.155 95.9502 523.336C96.126 523.517 96.2139 523.744 96.2139 524.017C96.2139 524.286 96.126 524.51 95.9502 524.691C95.7744 524.867 95.5254 524.955 95.2031 524.955C94.8809 524.955 94.6318 524.867 94.4561 524.691C94.2852 524.51 94.1997 524.286 94.1997 524.017ZM99.9272 534H98.1475V522.75H99.9272V534ZM103.765 534H101.985V522.75H103.765V534ZM111.199 526.939C111.78 526.266 112.515 525.929 113.404 525.929C115.093 525.929 115.95 526.893 115.975 528.822V534H114.195V528.888C114.195 528.341 114.075 527.955 113.836 527.73C113.602 527.501 113.255 527.386 112.796 527.386C112.083 527.386 111.551 527.704 111.199 528.338V534H109.419V522.75H111.199V526.939ZM121.27 534.146C120.142 534.146 119.227 533.792 118.523 533.084C117.825 532.372 117.476 531.424 117.476 530.243V530.023C117.476 529.232 117.627 528.526 117.93 527.906C118.238 527.281 118.667 526.795 119.219 526.449C119.771 526.102 120.386 525.929 121.065 525.929C122.144 525.929 122.977 526.273 123.562 526.961C124.153 527.65 124.449 528.624 124.449 529.884V530.602H119.271C119.324 531.256 119.542 531.773 119.922 532.154C120.308 532.535 120.792 532.726 121.373 532.726C122.188 532.726 122.852 532.396 123.365 531.737L124.324 532.652C124.007 533.126 123.582 533.495 123.05 533.758C122.522 534.017 121.929 534.146 121.27 534.146ZM121.058 527.357C120.569 527.357 120.174 527.528 119.871 527.87C119.573 528.211 119.383 528.688 119.3 529.298H122.691V529.166C122.652 528.57 122.493 528.121 122.215 527.818C121.937 527.511 121.551 527.357 121.058 527.357ZM127.73 534H125.95V522.75H127.73V534ZM136.614 530.118C136.614 531.344 136.336 532.323 135.779 533.055C135.223 533.783 134.476 534.146 133.538 534.146C132.669 534.146 131.973 533.861 131.451 533.29V537.047H129.671V526.075H131.312L131.385 526.881C131.907 526.246 132.618 525.929 133.516 525.929C134.483 525.929 135.24 526.29 135.787 527.013C136.338 527.73 136.614 528.729 136.614 530.008V530.118ZM134.842 529.964C134.842 529.173 134.683 528.546 134.366 528.082C134.053 527.618 133.604 527.386 133.018 527.386C132.291 527.386 131.768 527.687 131.451 528.287V531.803C131.773 532.418 132.3 532.726 133.033 532.726C133.599 532.726 134.041 532.499 134.358 532.044C134.681 531.585 134.842 530.892 134.842 529.964ZM144.634 531.451L146.246 526.075H148.143L144.993 535.201C144.51 536.534 143.689 537.201 142.532 537.201C142.273 537.201 141.988 537.157 141.675 537.069V535.692L142.012 535.714C142.461 535.714 142.798 535.631 143.023 535.465C143.252 535.304 143.433 535.03 143.565 534.645L143.821 533.963L141.038 526.075H142.957L144.634 531.451ZM148.721 529.964C148.721 529.188 148.875 528.49 149.183 527.87C149.49 527.245 149.922 526.766 150.479 526.434C151.036 526.097 151.675 525.929 152.398 525.929C153.467 525.929 154.334 526.273 154.998 526.961C155.667 527.65 156.028 528.563 156.082 529.701L156.089 530.118C156.089 530.899 155.938 531.598 155.635 532.213C155.337 532.828 154.908 533.304 154.346 533.641C153.79 533.978 153.145 534.146 152.413 534.146C151.294 534.146 150.398 533.775 149.725 533.033C149.056 532.286 148.721 531.292 148.721 530.052V529.964ZM150.501 530.118C150.501 530.934 150.669 531.573 151.006 532.037C151.343 532.496 151.812 532.726 152.413 532.726C153.013 532.726 153.479 532.491 153.812 532.022C154.148 531.554 154.317 530.868 154.317 529.964C154.317 529.164 154.144 528.529 153.797 528.06C153.455 527.591 152.989 527.357 152.398 527.357C151.817 527.357 151.355 527.589 151.014 528.053C150.672 528.512 150.501 529.2 150.501 530.118ZM162.396 533.224C161.873 533.839 161.131 534.146 160.169 534.146C159.31 534.146 158.658 533.895 158.213 533.392C157.774 532.889 157.554 532.162 157.554 531.209V526.075H159.334V531.188C159.334 532.193 159.751 532.696 160.586 532.696C161.451 532.696 162.034 532.386 162.337 531.766V526.075H164.117V534H162.439L162.396 533.224ZM171.895 524.149V526.075H173.294V527.394H171.895V531.817C171.895 532.12 171.954 532.34 172.071 532.477C172.193 532.608 172.408 532.674 172.715 532.674C172.92 532.674 173.128 532.65 173.338 532.601V533.978C172.933 534.09 172.542 534.146 172.166 534.146C170.799 534.146 170.115 533.392 170.115 531.883V527.394H168.812V526.075H170.115V524.149H171.895ZM174.107 529.964C174.107 529.188 174.261 528.49 174.568 527.87C174.876 527.245 175.308 526.766 175.865 526.434C176.421 526.097 177.061 525.929 177.784 525.929C178.853 525.929 179.72 526.273 180.384 526.961C181.053 527.65 181.414 528.563 181.468 529.701L181.475 530.118C181.475 530.899 181.324 531.598 181.021 532.213C180.723 532.828 180.293 533.304 179.732 533.641C179.175 533.978 178.531 534.146 177.798 534.146C176.68 534.146 175.784 533.775 175.11 533.033C174.441 532.286 174.107 531.292 174.107 530.052V529.964ZM175.887 530.118C175.887 530.934 176.055 531.573 176.392 532.037C176.729 532.496 177.198 532.726 177.798 532.726C178.399 532.726 178.865 532.491 179.197 532.022C179.534 531.554 179.703 530.868 179.703 529.964C179.703 529.164 179.529 528.529 179.183 528.06C178.841 527.591 178.375 527.357 177.784 527.357C177.203 527.357 176.741 527.589 176.399 528.053C176.058 528.512 175.887 529.2 175.887 530.118ZM186.404 529.979C186.404 528.749 186.692 527.767 187.269 527.035C187.85 526.297 188.619 525.929 189.576 525.929C190.479 525.929 191.189 526.244 191.707 526.874L191.788 526.075H193.392V533.758C193.392 534.798 193.067 535.619 192.417 536.219C191.773 536.82 190.901 537.12 189.803 537.12C189.222 537.12 188.653 536.998 188.096 536.754C187.544 536.515 187.125 536.2 186.836 535.809L187.679 534.74C188.226 535.389 188.899 535.714 189.7 535.714C190.291 535.714 190.757 535.553 191.099 535.23C191.441 534.913 191.612 534.444 191.612 533.824V533.29C191.099 533.861 190.416 534.146 189.561 534.146C188.633 534.146 187.874 533.778 187.283 533.041C186.697 532.303 186.404 531.283 186.404 529.979ZM188.177 530.133C188.177 530.929 188.338 531.556 188.66 532.015C188.987 532.469 189.439 532.696 190.015 532.696C190.733 532.696 191.265 532.389 191.612 531.773V528.287C191.275 527.687 190.748 527.386 190.03 527.386C189.444 527.386 188.987 527.618 188.66 528.082C188.338 528.546 188.177 529.229 188.177 530.133ZM199.375 527.701C199.141 527.662 198.899 527.643 198.65 527.643C197.835 527.643 197.286 527.955 197.002 528.58V534H195.223V526.075H196.922L196.966 526.961C197.396 526.273 197.991 525.929 198.753 525.929C199.007 525.929 199.217 525.963 199.383 526.031L199.375 527.701ZM199.903 529.964C199.903 529.188 200.057 528.49 200.364 527.87C200.672 527.245 201.104 526.766 201.661 526.434C202.217 526.097 202.857 525.929 203.58 525.929C204.649 525.929 205.516 526.273 206.18 526.961C206.849 527.65 207.21 528.563 207.264 529.701L207.271 530.118C207.271 530.899 207.12 531.598 206.817 532.213C206.519 532.828 206.089 533.304 205.528 533.641C204.971 533.978 204.327 534.146 203.594 534.146C202.476 534.146 201.58 533.775 200.906 533.033C200.237 532.286 199.903 531.292 199.903 530.052V529.964ZM201.683 530.118C201.683 530.934 201.851 531.573 202.188 532.037C202.525 532.496 202.994 532.726 203.594 532.726C204.195 532.726 204.661 532.491 204.993 532.022C205.33 531.554 205.499 530.868 205.499 529.964C205.499 529.164 205.325 528.529 204.979 528.06C204.637 527.591 204.17 527.357 203.58 527.357C202.999 527.357 202.537 527.589 202.195 528.053C201.854 528.512 201.683 529.2 201.683 530.118ZM215.738 531.546L216.998 526.075H218.733L216.573 534H215.108L213.409 528.558L211.739 534H210.274L208.106 526.075H209.842L211.124 531.488L212.75 526.075H214.09L215.738 531.546ZM226.431 531.451L228.042 526.075H229.939L226.79 535.201C226.307 536.534 225.486 537.201 224.329 537.201C224.07 537.201 223.785 537.157 223.472 537.069V535.692L223.809 535.714C224.258 535.714 224.595 535.631 224.82 535.465C225.049 535.304 225.23 535.03 225.362 534.645L225.618 533.963L222.835 526.075H224.754L226.431 531.451ZM230.518 529.964C230.518 529.188 230.672 528.49 230.979 527.87C231.287 527.245 231.719 526.766 232.276 526.434C232.833 526.097 233.472 525.929 234.195 525.929C235.264 525.929 236.131 526.273 236.795 526.961C237.464 527.65 237.825 528.563 237.879 529.701L237.886 530.118C237.886 530.899 237.735 531.598 237.432 532.213C237.134 532.828 236.705 533.304 236.143 533.641C235.586 533.978 234.942 534.146 234.209 534.146C233.091 534.146 232.195 533.775 231.521 533.033C230.853 532.286 230.518 531.292 230.518 530.052V529.964ZM232.298 530.118C232.298 530.934 232.466 531.573 232.803 532.037C233.14 532.496 233.609 532.726 234.209 532.726C234.81 532.726 235.276 532.491 235.608 532.022C235.945 531.554 236.114 530.868 236.114 529.964C236.114 529.164 235.94 528.529 235.594 528.06C235.252 527.591 234.786 527.357 234.195 527.357C233.614 527.357 233.152 527.589 232.811 528.053C232.469 528.512 232.298 529.2 232.298 530.118ZM244.192 533.224C243.67 533.839 242.928 534.146 241.966 534.146C241.106 534.146 240.455 533.895 240.01 533.392C239.571 532.889 239.351 532.162 239.351 531.209V526.075H241.131V531.188C241.131 532.193 241.548 532.696 242.383 532.696C243.248 532.696 243.831 532.386 244.134 531.766V526.075H245.914V534H244.236L244.192 533.224ZM251.875 527.701C251.641 527.662 251.399 527.643 251.15 527.643C250.335 527.643 249.786 527.955 249.502 528.58V534H247.723V526.075H249.422L249.466 526.961C249.896 526.273 250.491 525.929 251.253 525.929C251.507 525.929 251.717 525.963 251.883 526.031L251.875 527.701ZM263.689 530.118C263.689 531.349 263.414 532.328 262.862 533.055C262.315 533.783 261.561 534.146 260.599 534.146C259.671 534.146 258.948 533.812 258.431 533.143L258.343 534H256.731V522.75H258.511V526.837C259.024 526.231 259.715 525.929 260.584 525.929C261.551 525.929 262.31 526.288 262.862 527.005C263.414 527.723 263.689 528.727 263.689 530.016V530.118ZM261.91 529.964C261.91 529.105 261.758 528.46 261.456 528.031C261.153 527.601 260.713 527.386 260.137 527.386C259.366 527.386 258.824 527.723 258.511 528.397V531.664C258.829 532.352 259.375 532.696 260.152 532.696C260.708 532.696 261.138 532.489 261.441 532.074C261.744 531.659 261.9 531.031 261.91 530.191V529.964ZM269.988 533.224C269.466 533.839 268.724 534.146 267.762 534.146C266.902 534.146 266.25 533.895 265.806 533.392C265.367 532.889 265.147 532.162 265.147 531.209V526.075H266.927V531.188C266.927 532.193 267.344 532.696 268.179 532.696C269.043 532.696 269.627 532.386 269.93 531.766V526.075H271.709V534H270.032L269.988 533.224ZM277.964 531.847C277.964 531.529 277.833 531.288 277.569 531.122C277.31 530.956 276.878 530.809 276.272 530.682C275.667 530.555 275.162 530.394 274.756 530.199C273.868 529.769 273.423 529.146 273.423 528.331C273.423 527.647 273.711 527.076 274.288 526.617C274.864 526.158 275.596 525.929 276.485 525.929C277.432 525.929 278.196 526.163 278.777 526.632C279.363 527.101 279.656 527.708 279.656 528.456H277.876C277.876 528.114 277.75 527.831 277.496 527.606C277.242 527.376 276.905 527.262 276.485 527.262C276.094 527.262 275.774 527.352 275.525 527.533C275.281 527.713 275.159 527.955 275.159 528.258C275.159 528.531 275.274 528.744 275.503 528.895C275.733 529.046 276.197 529.2 276.895 529.356C277.593 529.508 278.14 529.691 278.536 529.906C278.936 530.116 279.231 530.37 279.422 530.667C279.617 530.965 279.715 531.327 279.715 531.751C279.715 532.464 279.419 533.043 278.829 533.487C278.238 533.927 277.464 534.146 276.507 534.146C275.857 534.146 275.279 534.029 274.771 533.795C274.263 533.561 273.868 533.238 273.584 532.828C273.301 532.418 273.16 531.976 273.16 531.502H274.888C274.913 531.922 275.071 532.247 275.364 532.477C275.657 532.701 276.045 532.813 276.529 532.813C276.998 532.813 277.354 532.726 277.598 532.55C277.842 532.369 277.964 532.135 277.964 531.847ZM283.165 534H281.385V526.075H283.165V534ZM281.275 524.017C281.275 523.744 281.36 523.517 281.531 523.336C281.707 523.155 281.956 523.065 282.278 523.065C282.601 523.065 282.85 523.155 283.025 523.336C283.201 523.517 283.289 523.744 283.289 524.017C283.289 524.286 283.201 524.51 283.025 524.691C282.85 524.867 282.601 524.955 282.278 524.955C281.956 524.955 281.707 524.867 281.531 524.691C281.36 524.51 281.275 524.286 281.275 524.017ZM286.761 526.075L286.812 526.991C287.398 526.283 288.167 525.929 289.119 525.929C290.77 525.929 291.609 526.874 291.639 528.763V534H289.859V528.866C289.859 528.363 289.749 527.992 289.529 527.752C289.314 527.508 288.96 527.386 288.467 527.386C287.75 527.386 287.215 527.711 286.863 528.36V534H285.083V526.075H286.761ZM296.949 534.146C295.821 534.146 294.905 533.792 294.202 533.084C293.504 532.372 293.155 531.424 293.155 530.243V530.023C293.155 529.232 293.306 528.526 293.609 527.906C293.917 527.281 294.346 526.795 294.898 526.449C295.45 526.102 296.065 525.929 296.744 525.929C297.823 525.929 298.655 526.273 299.241 526.961C299.832 527.65 300.127 528.624 300.127 529.884V530.602H294.949C295.003 531.256 295.22 531.773 295.601 532.154C295.987 532.535 296.47 532.726 297.051 532.726C297.867 532.726 298.531 532.396 299.043 531.737L300.003 532.652C299.686 533.126 299.261 533.495 298.729 533.758C298.201 534.017 297.608 534.146 296.949 534.146ZM296.736 527.357C296.248 527.357 295.853 527.528 295.55 527.87C295.252 528.211 295.062 528.688 294.979 529.298H298.37V529.166C298.331 528.57 298.172 528.121 297.894 527.818C297.615 527.511 297.229 527.357 296.736 527.357ZM305.958 531.847C305.958 531.529 305.826 531.288 305.562 531.122C305.303 530.956 304.871 530.809 304.266 530.682C303.66 530.555 303.155 530.394 302.75 530.199C301.861 529.769 301.417 529.146 301.417 528.331C301.417 527.647 301.705 527.076 302.281 526.617C302.857 526.158 303.589 525.929 304.478 525.929C305.425 525.929 306.189 526.163 306.771 526.632C307.356 527.101 307.649 527.708 307.649 528.456H305.87C305.87 528.114 305.743 527.831 305.489 527.606C305.235 527.376 304.898 527.262 304.478 527.262C304.087 527.262 303.768 527.352 303.519 527.533C303.274 527.713 303.152 527.955 303.152 528.258C303.152 528.531 303.267 528.744 303.497 528.895C303.726 529.046 304.19 529.2 304.888 529.356C305.586 529.508 306.133 529.691 306.529 529.906C306.929 530.116 307.225 530.37 307.415 530.667C307.61 530.965 307.708 531.327 307.708 531.751C307.708 532.464 307.413 533.043 306.822 533.487C306.231 533.927 305.457 534.146 304.5 534.146C303.851 534.146 303.272 534.029 302.764 533.795C302.256 533.561 301.861 533.238 301.578 532.828C301.294 532.418 301.153 531.976 301.153 531.502H302.881C302.906 531.922 303.064 532.247 303.357 532.477C303.65 532.701 304.039 532.813 304.522 532.813C304.991 532.813 305.347 532.726 305.591 532.55C305.835 532.369 305.958 532.135 305.958 531.847ZM313.707 531.847C313.707 531.529 313.575 531.288 313.311 531.122C313.052 530.956 312.62 530.809 312.015 530.682C311.409 530.555 310.904 530.394 310.499 530.199C309.61 529.769 309.166 529.146 309.166 528.331C309.166 527.647 309.454 527.076 310.03 526.617C310.606 526.158 311.338 525.929 312.227 525.929C313.174 525.929 313.938 526.163 314.52 526.632C315.105 527.101 315.398 527.708 315.398 528.456H313.619C313.619 528.114 313.492 527.831 313.238 527.606C312.984 527.376 312.647 527.262 312.227 527.262C311.836 527.262 311.517 527.352 311.268 527.533C311.023 527.713 310.901 527.955 310.901 528.258C310.901 528.531 311.016 528.744 311.246 528.895C311.475 529.046 311.939 529.2 312.637 529.356C313.335 529.508 313.882 529.691 314.278 529.906C314.678 530.116 314.974 530.37 315.164 530.667C315.359 530.965 315.457 531.327 315.457 531.751C315.457 532.464 315.162 533.043 314.571 533.487C313.98 533.927 313.206 534.146 312.249 534.146C311.6 534.146 311.021 534.029 310.513 533.795C310.005 533.561 309.61 533.238 309.327 532.828C309.043 532.418 308.902 531.976 308.902 531.502H310.63C310.655 531.922 310.813 532.247 311.106 532.477C311.399 532.701 311.788 532.813 312.271 532.813C312.74 532.813 313.096 532.726 313.34 532.55C313.584 532.369 313.707 532.135 313.707 531.847ZM325.55 533.224C325.027 533.839 324.285 534.146 323.323 534.146C322.464 534.146 321.812 533.895 321.368 533.392C320.928 532.889 320.708 532.162 320.708 531.209V526.075H322.488V531.188C322.488 532.193 322.906 532.696 323.741 532.696C324.605 532.696 325.188 532.386 325.491 531.766V526.075H327.271V534H325.594L325.55 533.224ZM333.526 531.847C333.526 531.529 333.394 531.288 333.13 531.122C332.872 530.956 332.439 530.809 331.834 530.682C331.229 530.555 330.723 530.394 330.318 530.199C329.429 529.769 328.985 529.146 328.985 528.331C328.985 527.647 329.273 527.076 329.849 526.617C330.425 526.158 331.158 525.929 332.046 525.929C332.994 525.929 333.758 526.163 334.339 526.632C334.925 527.101 335.218 527.708 335.218 528.456H333.438C333.438 528.114 333.311 527.831 333.057 527.606C332.803 527.376 332.466 527.262 332.046 527.262C331.656 527.262 331.336 527.352 331.087 527.533C330.843 527.713 330.721 527.955 330.721 528.258C330.721 528.531 330.835 528.744 331.065 528.895C331.294 529.046 331.758 529.2 332.457 529.356C333.155 529.508 333.702 529.691 334.097 529.906C334.498 530.116 334.793 530.37 334.983 530.667C335.179 530.965 335.276 531.327 335.276 531.751C335.276 532.464 334.981 533.043 334.39 533.487C333.799 533.927 333.025 534.146 332.068 534.146C331.419 534.146 330.84 534.029 330.333 533.795C329.825 533.561 329.429 533.238 329.146 532.828C328.863 532.418 328.721 531.976 328.721 531.502H330.45C330.474 531.922 330.633 532.247 330.926 532.477C331.219 532.701 331.607 532.813 332.09 532.813C332.559 532.813 332.916 532.726 333.16 532.55C333.404 532.369 333.526 532.135 333.526 531.847ZM338.726 534H336.946V526.075H338.726V534ZM336.836 524.017C336.836 523.744 336.922 523.517 337.093 523.336C337.269 523.155 337.518 523.065 337.84 523.065C338.162 523.065 338.411 523.155 338.587 523.336C338.763 523.517 338.851 523.744 338.851 524.017C338.851 524.286 338.763 524.51 338.587 524.691C338.411 524.867 338.162 524.955 337.84 524.955C337.518 524.955 337.269 524.867 337.093 524.691C336.922 524.51 336.836 524.286 336.836 524.017ZM342.322 526.075L342.374 526.991C342.959 526.283 343.729 525.929 344.681 525.929C346.331 525.929 347.171 526.874 347.2 528.763V534H345.42V528.866C345.42 528.363 345.311 527.992 345.091 527.752C344.876 527.508 344.522 527.386 344.029 527.386C343.311 527.386 342.776 527.711 342.425 528.36V534H340.645V526.075H342.322ZM348.709 529.979C348.709 528.749 348.997 527.767 349.573 527.035C350.154 526.297 350.923 525.929 351.88 525.929C352.784 525.929 353.494 526.244 354.012 526.874L354.092 526.075H355.696V533.758C355.696 534.798 355.372 535.619 354.722 536.219C354.078 536.82 353.206 537.12 352.107 537.12C351.526 537.12 350.958 536.998 350.401 536.754C349.849 536.515 349.429 536.2 349.141 535.809L349.983 534.74C350.53 535.389 351.204 535.714 352.005 535.714C352.596 535.714 353.062 535.553 353.404 535.23C353.746 534.913 353.917 534.444 353.917 533.824V533.29C353.404 533.861 352.72 534.146 351.866 534.146C350.938 534.146 350.179 533.778 349.588 533.041C349.002 532.303 348.709 531.283 348.709 529.979ZM350.481 530.133C350.481 530.929 350.643 531.556 350.965 532.015C351.292 532.469 351.744 532.696 352.32 532.696C353.038 532.696 353.57 532.389 353.917 531.773V528.287C353.58 527.687 353.052 527.386 352.334 527.386C351.749 527.386 351.292 527.618 350.965 528.082C350.643 528.546 350.481 529.229 350.481 530.133ZM166.16 547.964C166.16 547.188 166.314 546.49 166.622 545.87C166.929 545.245 167.361 544.766 167.918 544.434C168.475 544.097 169.114 543.929 169.837 543.929C170.906 543.929 171.773 544.273 172.437 544.961C173.106 545.65 173.467 546.563 173.521 547.701L173.528 548.118C173.528 548.899 173.377 549.598 173.074 550.213C172.776 550.828 172.347 551.304 171.785 551.641C171.229 551.978 170.584 552.146 169.852 552.146C168.733 552.146 167.837 551.775 167.164 551.033C166.495 550.286 166.16 549.292 166.16 548.052V547.964ZM167.94 548.118C167.94 548.934 168.108 549.573 168.445 550.037C168.782 550.496 169.251 550.726 169.852 550.726C170.452 550.726 170.918 550.491 171.25 550.022C171.587 549.554 171.756 548.868 171.756 547.964C171.756 547.164 171.583 546.529 171.236 546.06C170.894 545.591 170.428 545.357 169.837 545.357C169.256 545.357 168.794 545.589 168.453 546.053C168.111 546.512 167.94 547.2 167.94 548.118ZM176.685 544.075L176.736 544.991C177.322 544.283 178.091 543.929 179.043 543.929C180.694 543.929 181.534 544.874 181.563 546.763V552H179.783V546.866C179.783 546.363 179.673 545.992 179.454 545.752C179.239 545.508 178.885 545.386 178.392 545.386C177.674 545.386 177.139 545.711 176.788 546.36V552H175.008V544.075H176.685ZM185.276 552H183.497V540.75H185.276V552ZM189.114 552H187.334V544.075H189.114V552ZM187.225 542.017C187.225 541.744 187.31 541.517 187.481 541.336C187.657 541.155 187.906 541.065 188.228 541.065C188.55 541.065 188.799 541.155 188.975 541.336C189.151 541.517 189.239 541.744 189.239 542.017C189.239 542.286 189.151 542.51 188.975 542.691C188.799 542.867 188.55 542.955 188.228 542.955C187.906 542.955 187.657 542.867 187.481 542.691C187.31 542.51 187.225 542.286 187.225 542.017ZM192.71 544.075L192.762 544.991C193.348 544.283 194.117 543.929 195.069 543.929C196.719 543.929 197.559 544.874 197.588 546.763V552H195.809V546.866C195.809 546.363 195.699 545.992 195.479 545.752C195.264 545.508 194.91 545.386 194.417 545.386C193.699 545.386 193.165 545.711 192.813 546.36V552H191.033V544.075H192.71ZM202.898 552.146C201.771 552.146 200.855 551.792 200.152 551.084C199.454 550.372 199.104 549.424 199.104 548.243V548.023C199.104 547.232 199.256 546.526 199.559 545.906C199.866 545.281 200.296 544.795 200.848 544.449C201.399 544.102 202.015 543.929 202.693 543.929C203.772 543.929 204.605 544.273 205.191 544.961C205.782 545.65 206.077 546.624 206.077 547.884V548.602H200.899C200.953 549.256 201.17 549.773 201.551 550.154C201.937 550.535 202.42 550.726 203.001 550.726C203.816 550.726 204.48 550.396 204.993 549.737L205.953 550.652C205.635 551.126 205.21 551.495 204.678 551.758C204.151 552.017 203.558 552.146 202.898 552.146ZM202.686 545.357C202.198 545.357 201.802 545.528 201.5 545.87C201.202 546.211 201.011 546.688 200.928 547.298H204.319V547.166C204.28 546.57 204.122 546.121 203.843 545.818C203.565 545.511 203.179 545.357 202.686 545.357ZM215.643 549.847C215.643 549.529 215.511 549.288 215.247 549.122C214.988 548.956 214.556 548.809 213.951 548.682C213.345 548.555 212.84 548.394 212.435 548.199C211.546 547.769 211.102 547.146 211.102 546.331C211.102 545.647 211.39 545.076 211.966 544.617C212.542 544.158 213.274 543.929 214.163 543.929C215.11 543.929 215.875 544.163 216.456 544.632C217.042 545.101 217.334 545.708 217.334 546.456H215.555C215.555 546.114 215.428 545.831 215.174 545.606C214.92 545.376 214.583 545.262 214.163 545.262C213.772 545.262 213.453 545.352 213.204 545.533C212.959 545.713 212.837 545.955 212.837 546.258C212.837 546.531 212.952 546.744 213.182 546.895C213.411 547.046 213.875 547.2 214.573 547.356C215.271 547.508 215.818 547.691 216.214 547.906C216.614 548.116 216.91 548.37 217.1 548.667C217.295 548.965 217.393 549.327 217.393 549.751C217.393 550.464 217.098 551.043 216.507 551.487C215.916 551.927 215.142 552.146 214.185 552.146C213.536 552.146 212.957 552.029 212.449 551.795C211.941 551.561 211.546 551.238 211.263 550.828C210.979 550.418 210.838 549.976 210.838 549.502H212.566C212.591 549.922 212.75 550.247 213.042 550.477C213.335 550.701 213.724 550.813 214.207 550.813C214.676 550.813 215.032 550.726 215.276 550.55C215.521 550.369 215.643 550.135 215.643 549.847ZM222.439 552.146C221.312 552.146 220.396 551.792 219.693 551.084C218.995 550.372 218.646 549.424 218.646 548.243V548.023C218.646 547.232 218.797 546.526 219.1 545.906C219.407 545.281 219.837 544.795 220.389 544.449C220.94 544.102 221.556 543.929 222.234 543.929C223.313 543.929 224.146 544.273 224.732 544.961C225.323 545.65 225.618 546.624 225.618 547.884V548.602H220.44C220.494 549.256 220.711 549.773 221.092 550.154C221.478 550.535 221.961 550.726 222.542 550.726C223.357 550.726 224.021 550.396 224.534 549.737L225.494 550.652C225.176 551.126 224.751 551.495 224.219 551.758C223.692 552.017 223.099 552.146 222.439 552.146ZM222.227 545.357C221.739 545.357 221.343 545.528 221.041 545.87C220.743 546.211 220.552 546.688 220.469 547.298H223.86V547.166C223.821 546.57 223.663 546.121 223.384 545.818C223.106 545.511 222.72 545.357 222.227 545.357ZM231.155 545.701C230.921 545.662 230.679 545.643 230.43 545.643C229.615 545.643 229.065 545.955 228.782 546.58V552H227.002V544.075H228.702L228.746 544.961C229.175 544.273 229.771 543.929 230.533 543.929C230.787 543.929 230.997 543.963 231.163 544.031L231.155 545.701ZM235.206 549.744L236.883 544.075H238.721L235.975 552H234.429L231.661 544.075H233.506L235.206 549.744ZM243.226 552.146C242.098 552.146 241.182 551.792 240.479 551.084C239.781 550.372 239.432 549.424 239.432 548.243V548.023C239.432 547.232 239.583 546.526 239.886 545.906C240.193 545.281 240.623 544.795 241.175 544.449C241.727 544.102 242.342 543.929 243.021 543.929C244.1 543.929 244.932 544.273 245.518 544.961C246.109 545.65 246.404 546.624 246.404 547.884V548.602H241.226C241.28 549.256 241.497 549.773 241.878 550.154C242.264 550.535 242.747 550.726 243.328 550.726C244.144 550.726 244.808 550.396 245.32 549.737L246.28 550.652C245.962 551.126 245.538 551.495 245.005 551.758C244.478 552.017 243.885 552.146 243.226 552.146ZM243.013 545.357C242.525 545.357 242.129 545.528 241.827 545.87C241.529 546.211 241.338 546.688 241.255 547.298H244.646V547.166C244.607 546.57 244.449 546.121 244.17 545.818C243.892 545.511 243.506 545.357 243.013 545.357ZM251.941 545.701C251.707 545.662 251.465 545.643 251.216 545.643C250.401 545.643 249.852 545.955 249.568 546.58V552H247.789V544.075H249.488L249.532 544.961C249.961 544.273 250.557 543.929 251.319 543.929C251.573 543.929 251.783 543.963 251.949 544.031L251.941 545.701Z" fill="black"/>
<rect x="54" y="622" width="112" height="52" rx="10" fill="#C4C4C4"/>
<rect x="54" y="622" width="112" height="52" rx="10" fill="#C4C4C4"/>
<rect x="54" y="622" width="112" height="52" rx="10" fill="#C4C4C4"/>
<rect x="54" y="622" width="112" height="52" rx="10" fill="#C4C4C4"/>
<path d="M88.543 651.235H93.2085V653H86.3457V642.336H88.543V651.235ZM102.767 647.91C102.767 648.959 102.581 649.88 102.21 650.671C101.839 651.462 101.307 652.072 100.613 652.502C99.9248 652.932 99.1338 653.146 98.2402 653.146C97.3564 653.146 96.5679 652.934 95.8745 652.509C95.1812 652.084 94.644 651.479 94.2632 650.693C93.8823 649.902 93.6895 648.994 93.6846 647.968V647.441C93.6846 646.391 93.8726 645.468 94.2485 644.672C94.6294 643.872 95.1641 643.259 95.8525 642.834C96.5459 642.404 97.3369 642.189 98.2256 642.189C99.1143 642.189 99.9028 642.404 100.591 642.834C101.285 643.259 101.819 643.872 102.195 644.672C102.576 645.468 102.767 646.389 102.767 647.434V647.91ZM100.54 647.426C100.54 646.308 100.34 645.458 99.9395 644.877C99.5391 644.296 98.9678 644.006 98.2256 644.006C97.4883 644.006 96.9194 644.294 96.519 644.87C96.1187 645.441 95.916 646.281 95.9111 647.39V647.91C95.9111 648.999 96.1113 649.843 96.5117 650.444C96.9121 651.044 97.4883 651.345 98.2402 651.345C98.9775 651.345 99.5439 651.057 99.9395 650.48C100.335 649.899 100.535 649.055 100.54 647.946V647.426ZM112.801 651.652C112.405 652.126 111.846 652.495 111.124 652.758C110.401 653.017 109.6 653.146 108.721 653.146C107.798 653.146 106.988 652.946 106.29 652.546C105.596 652.141 105.059 651.555 104.678 650.788C104.302 650.021 104.109 649.121 104.1 648.085V647.36C104.1 646.296 104.278 645.375 104.634 644.599C104.996 643.818 105.513 643.222 106.187 642.812C106.866 642.397 107.659 642.189 108.567 642.189C109.832 642.189 110.821 642.492 111.534 643.098C112.247 643.698 112.669 644.575 112.801 645.727H110.662C110.564 645.117 110.347 644.67 110.01 644.387C109.678 644.104 109.219 643.962 108.633 643.962C107.886 643.962 107.317 644.243 106.927 644.804C106.536 645.366 106.338 646.201 106.333 647.309V647.99C106.333 649.108 106.546 649.953 106.971 650.524C107.396 651.096 108.018 651.381 108.838 651.381C109.664 651.381 110.252 651.206 110.604 650.854V649.016H108.604V647.397H112.801V651.652ZM116.924 653H114.727V642.336H116.924V653ZM127.64 653H125.442L121.165 645.983V653H118.968V642.336H121.165L125.45 649.367V642.336H127.64V653Z" fill="black"/>
<path d="M255 632C255 626.477 259.477 622 265 622H356C361.523 622 366 626.477 366 632V664C366 669.523 361.523 674 356 674H265C259.477 674 255 669.523 255 664V632Z" fill="#C4C4C4"/>
<path d="M287.625 650.202C287.625 649.787 287.478 649.47 287.185 649.25C286.892 649.025 286.365 648.791 285.603 648.547C284.841 648.298 284.238 648.054 283.794 647.814C282.583 647.16 281.978 646.279 281.978 645.17C281.978 644.594 282.139 644.082 282.461 643.632C282.788 643.178 283.254 642.824 283.86 642.57C284.47 642.316 285.154 642.189 285.911 642.189C286.672 642.189 287.351 642.329 287.947 642.607C288.542 642.88 289.004 643.269 289.331 643.771C289.663 644.274 289.829 644.846 289.829 645.485H287.632C287.632 644.997 287.478 644.619 287.17 644.35C286.863 644.077 286.431 643.94 285.874 643.94C285.337 643.94 284.919 644.055 284.622 644.284C284.324 644.509 284.175 644.807 284.175 645.178C284.175 645.524 284.348 645.815 284.695 646.049C285.046 646.284 285.562 646.503 286.24 646.708C287.49 647.084 288.401 647.551 288.972 648.107C289.543 648.664 289.829 649.357 289.829 650.188C289.829 651.11 289.48 651.835 288.782 652.363C288.083 652.885 287.144 653.146 285.962 653.146C285.142 653.146 284.395 652.998 283.721 652.7C283.047 652.397 282.532 651.984 282.175 651.462C281.824 650.939 281.648 650.334 281.648 649.646H283.853C283.853 650.822 284.556 651.411 285.962 651.411C286.484 651.411 286.892 651.306 287.185 651.096C287.478 650.881 287.625 650.583 287.625 650.202ZM293.66 653H291.462V642.336H293.66V653ZM304.141 651.652C303.745 652.126 303.186 652.495 302.463 652.758C301.741 653.017 300.94 653.146 300.061 653.146C299.138 653.146 298.328 652.946 297.629 652.546C296.936 652.141 296.399 651.555 296.018 650.788C295.642 650.021 295.449 649.121 295.439 648.085V647.36C295.439 646.296 295.618 645.375 295.974 644.599C296.335 643.818 296.853 643.222 297.527 642.812C298.206 642.397 298.999 642.189 299.907 642.189C301.172 642.189 302.161 642.492 302.874 643.098C303.586 643.698 304.009 644.575 304.141 645.727H302.002C301.904 645.117 301.687 644.67 301.35 644.387C301.018 644.104 300.559 643.962 299.973 643.962C299.226 643.962 298.657 644.243 298.267 644.804C297.876 645.366 297.678 646.201 297.673 647.309V647.99C297.673 649.108 297.886 649.953 298.311 650.524C298.735 651.096 299.358 651.381 300.178 651.381C301.003 651.381 301.592 651.206 301.943 650.854V649.016H299.944V647.397H304.141V651.652ZM314.6 653H312.402L308.125 645.983V653H305.928V642.336H308.125L312.41 649.367V642.336H314.6V653ZM328.325 642.336V649.36C328.325 650.527 327.959 651.45 327.227 652.128C326.499 652.807 325.503 653.146 324.238 653.146C322.993 653.146 322.004 652.817 321.272 652.158C320.54 651.499 320.166 650.593 320.151 649.44V642.336H322.349V649.375C322.349 650.073 322.515 650.583 322.847 650.905C323.184 651.223 323.647 651.381 324.238 651.381C325.474 651.381 326.101 650.732 326.121 649.433V642.336H328.325ZM332.324 649.243V653H330.127V642.336H334.287C335.088 642.336 335.791 642.482 336.396 642.775C337.007 643.068 337.476 643.486 337.803 644.028C338.13 644.565 338.293 645.178 338.293 645.866C338.293 646.911 337.935 647.736 337.217 648.342C336.504 648.942 335.515 649.243 334.25 649.243H332.324ZM332.324 647.463H334.287C334.868 647.463 335.31 647.326 335.613 647.053C335.92 646.779 336.074 646.389 336.074 645.881C336.074 645.358 335.92 644.936 335.613 644.614C335.305 644.292 334.88 644.125 334.338 644.116H332.324V647.463Z" fill="black"/>
<rect x="0.5" y="0.5" width="413" height="900" stroke="black"/>
<defs>
<linearGradient id="paint0_linear" x1="207" y1="0" x2="207" y2="906" gradientUnits="userSpaceOnUse">
<stop offset="0.0280786" stop-color="#00F3E5"/>
<stop offset="0.568732" stop-color="#00CCF9"/>
<stop offset="0.803489" stop-color="#00CCF9"/>
<stop offset="0.9998" stop-color="#00D1FF" stop-opacity="0"/>
<stop offset="0.9999" stop-color="#00F9EA" stop-opacity="0.13"/>
</linearGradient>
</defs>
</svg>
